<svg version="1.2" xmlns="http://www.w3.org/2000/svg" viewBox="0 0 1440 422" width="1440" height="422"><defs><clipPath clipPathUnits="userSpaceOnUse" id="cp1"><path d="m1440-388h-1440v810h1440z"/></clipPath></defs><style>.a{fill:#3e74b2}.b{fill:#245fa5}.c{fill:#14549e}</style><g clip-path="url(#cp1)"><path class="a" d="m1440 116l-21.8 5.3c-21.7 5.2-65.2 15.7-109 6.3-43.7-9.7-87.7-39-131.4-74.2-43.8-34.9-87.3-75.4-130.8-59.2-43.5 16.4-87 89.3-130.5 129.8-43.5 40.4-87 48.6-130.8 60.6-43.7 12-87.7 27.8-131.4 37.5-43.8 9.4-87.3 12.4-130.8 9.8-43.5-2.3-87-10.5-130.5-39-43.5-28.5-87-77.3-130.8-100.5-43.6-22.9-87.7-19.9-131.4-36-43.8-15.8-87.3-50.9-109-68.3l-21.8-17.6v-117l21.8 20.3c21.7 20.2 40.4 18 84.2 38.2 43.7 20.3 55.4-2.3 99 22 43.8 24.2 112.5 22.1 156 45 43.5 23 86-39.7 147-36.7 49 0 88-30.3 146.3-24.3 43.7-25.8 87.8 59.6 131.4 50 43.8-9.5 87.3-9.5 130.8-25.7 43.5-16.3 87-48.8 130.5-58.3 43.5-9.5 87 4 130.8 20.2 43.7 16.4 87.7 35.3 131.4 50.3 43.8 15 87.3 26.1 109.1 31.5l21.7 5.5z"/><path class="b" d="m1440 228.5l-21.8 8.3c-21.7 8.2-65.2 24.7-109 16.8-43.7-8.2-87.7-40.5-131.4-75.8-43.8-35.2-87.3-73.4-130.8-63.7-43.5 9.4-87 66.4-130.5 93.4-43.5 27-87 24-130.8 38.7-43.7 14.9-87.7 47.2-131.4 56.9-43.8 9.4-87.3-4.1-130.8-10.9-43.5-6.7-87-6.7-130.5-20.2-43.5-13.5-87-40.5-130.8-54-43.6-13.5-87.7-13.5-131.4-33.8-43.8-20.2-87.3-60.7-109-81l-21.8-20.2v-115.5l21.8 17.6c21.7 17.4 65.2 52.4 109 68.3 43.7 16.1 87.8 13.1 131.4 36 43.8 23.1 87.3 72 130.8 100.5 43.5 28.5 87 36.6 130.5 39 43.5 2.6 87-0.4 130.8-9.8 43.7-9.7 87.7-25.5 131.4-37.5 43.8-12 87.3-20.2 130.8-60.7 43.5-40.5 87-113.4 130.5-129.7 43.5-16.2 87 24.3 130.8 59.2 43.7 35.1 87.7 64.5 131.4 74.1 43.8 9.5 87.3-1 109-6.3l21.8-5.2z"/><path class="c" d="m1440 423.5h-21.8c-21.7 0-65.2 0-109 0-43.7 0-87.7 0-131.4 0-43.8 0-87.3 0-130.8 0q-65.2 0-130.5 0c-43.5 0-87 0-130.8 0-43.7 0-87.7 0-131.4 0-43.8 0-87.3 0-130.8 0q-65.2 0-130.5 0c-43.5 0-87 0-130.8 0-43.6 0-87.7 0-131.4 0-43.8 0-87.3 0-109 0h-21.8v-343.5l21.8 20.3c21.7 20.2 65.2 60.7 109 81 43.7 20.2 87.8 20.2 131.4 33.7 43.8 13.5 87.3 40.5 130.8 54 43.5 13.5 87 13.5 130.5 20.2 43.5 6.8 87 20.3 130.8 10.9 43.7-9.7 87.7-42 131.4-56.9 43.8-14.7 87.3-11.7 130.8-38.7 43.5-27 87-84 130.5-93.4 43.5-9.7 87 28.5 130.8 63.7 43.7 35.3 87.7 67.6 131.4 75.8 43.8 7.9 87.3-8.6 109-16.8l21.8-8.3z"/></g></svg>