<svg width="24" height="24" viewBox="0 0 24 24" fill="none" xmlns="http://www.w3.org/2000/svg">
<path d="M7.02399 3.75C7.02399 2.784 7.80799 2 8.77399 2H20.25C21.216 2 22 2.784 22 3.75V15.248C22 15.7121 21.8156 16.1572 21.4874 16.4854C21.1592 16.8136 20.7141 16.998 20.25 16.998H8.77399C8.30986 16.998 7.86474 16.8136 7.53655 16.4854C7.20836 16.1572 7.02399 15.7121 7.02399 15.248V3.75ZM8.77399 3.5C8.70768 3.5 8.64409 3.52634 8.59721 3.57322C8.55033 3.62011 8.52399 3.6837 8.52399 3.75V15.248C8.52399 15.387 8.63599 15.498 8.77399 15.498H20.25C20.3163 15.498 20.3799 15.4717 20.4268 15.4248C20.4736 15.3779 20.5 15.3143 20.5 15.248V3.75C20.5 3.6837 20.4736 3.62011 20.4268 3.57322C20.3799 3.52634 20.3163 3.5 20.25 3.5H8.77399Z" fill="black"/>
<path d="M1.995 10.749C1.99486 10.5191 2.04003 10.2914 2.12792 10.079C2.21581 9.86656 2.34469 9.67353 2.5072 9.51092C2.66972 9.34831 2.86268 9.21932 3.07507 9.13131C3.28745 9.0433 3.5151 8.998 3.745 8.998H5.25C5.44891 8.998 5.63967 9.07702 5.78033 9.21767C5.92098 9.35832 6 9.54909 6 9.748C6 9.94691 5.92098 10.1377 5.78033 10.2783C5.63967 10.419 5.44891 10.498 5.25 10.498H3.745C3.67869 10.498 3.6151 10.5243 3.56822 10.5712C3.52133 10.6181 3.495 10.6817 3.495 10.748L3.5 20.25C3.5 20.388 3.611 20.5 3.75 20.5H13.25C13.3163 20.5 13.3799 20.4737 13.4268 20.4268C13.4737 20.3799 13.5 20.3163 13.5 20.25V18.74C13.5 18.5411 13.579 18.3503 13.7197 18.2097C13.8603 18.069 14.0511 17.99 14.25 17.99C14.4489 17.99 14.6397 18.069 14.7803 18.2097C14.921 18.3503 15 18.5411 15 18.74V20.25C15 20.7141 14.8156 21.1592 14.4874 21.4874C14.1592 21.8156 13.7141 22 13.25 22H3.75C3.28587 22 2.84075 21.8156 2.51256 21.4874C2.18437 21.1592 2 20.7141 2 20.25L1.995 10.749Z" fill="black"/>
</svg>
